HIERARCHY
ROOT Hips
{
	OFFSET -0.001795 -0.223333 0.028219
	CHANNELS 6 Xposition Yposition Zposition Zrotation Yrotation Xrotation 
	JOINT LeftUpLeg
	{
		OFFSET 0.069520 -0.091406 -0.006815
		CHANNELS 3 Zrotation Yrotation Xrotation
		JOINT LeftLeg
		{
			OFFSET 0.034277 -0.375199 -0.004496
			CHANNELS 3 Zrotation Yrotation Xrotation
			JOINT LeftFoot
			{
				OFFSET -0.013596 -0.397961 -0.043693
				CHANNELS 3 Zrotation Yrotation Xrotation
				JOINT LeftToe
				{
					OFFSET 0.026358 -0.055791 0.119288
					CHANNELS 3 Zrotation Yrotation Xrotation
					End Site
					{
						OFFSET 0.000000 0.000000 0.000000
					}
				}
			}
		}
	}
	JOINT RightUpLeg
	{
		OFFSET -0.067670 -0.090522 -0.004320
		CHANNELS 3 Zrotation Yrotation Xrotation
		JOINT RightLeg
		{
			OFFSET -0.038290 -0.382569 -0.008850
			CHANNELS 3 Zrotation Yrotation Xrotation
			JOINT RightFoot
			{
				OFFSET 0.015774 -0.398415 -0.042312
				CHANNELS 3 Zrotation Yrotation Xrotation
				JOINT RightToe
				{
					OFFSET -0.025372 -0.048144 0.123348
					CHANNELS 3 Zrotation Yrotation Xrotation
					End Site
					{
						OFFSET 0.000000 0.000000 0.000000
					}
				}
			}
		}
	}
	JOINT Spine
	{
		OFFSET -0.002533 0.108963 -0.026696
		CHANNELS 3 Zrotation Yrotation Xrotation
		JOINT Spine1
		{
			OFFSET 0.005487 0.135180 0.001092
			CHANNELS 3 Zrotation Yrotation Xrotation
			JOINT Spine2
			{
				OFFSET 0.001457 0.052922 0.025425
				CHANNELS 3 Zrotation Yrotation Xrotation
				JOINT Neck
				{
					OFFSET -0.002778 0.213870 -0.042857
					CHANNELS 3 Zrotation Yrotation Xrotation
					JOINT Head
					{
						OFFSET 0.005152 0.064970 0.051349
						CHANNELS 3 Zrotation Yrotation Xrotation
						End Site
						{
							OFFSET 0.000000 0.000000 0.000000
						}
					}
				}
				JOINT LeftShoulder
				{
					OFFSET 0.078845 0.121749 -0.034090
					CHANNELS 3 Zrotation Yrotation Xrotation
					JOINT LeftArm
					{
						OFFSET 0.090977 0.030469 -0.008868
						CHANNELS 3 Zrotation Yrotation Xrotation
						JOINT LeftForeArm
						{
							OFFSET 0.259612 -0.012772 -0.027456
							CHANNELS 3 Zrotation Yrotation Xrotation
							JOINT LeftHand
							{
								OFFSET 0.249234 0.008986 -0.001171
								CHANNELS 3 Zrotation Yrotation Xrotation
								End Site
								{
									OFFSET 0.000000 0.000000 0.000000
								}
							}
						}
					}
				}
				JOINT RightShoulder
				{
					OFFSET -0.081759 0.118833 -0.038615
					CHANNELS 3 Zrotation Yrotation Xrotation
					JOINT RightArm
					{
						OFFSET -0.096012 0.032551 -0.009143
						CHANNELS 3 Zrotation Yrotation Xrotation
						JOINT RightForeArm
						{
							OFFSET -0.253742 -0.013329 -0.021401
							CHANNELS 3 Zrotation Yrotation Xrotation
							JOINT RightHand
							{
								OFFSET -0.255298 0.007772 -0.005559
								CHANNELS 3 Zrotation Yrotation Xrotation
								End Site
								{
									OFFSET 0.000000 0.000000 0.000000
								}
							}
						}
					}
				}
			}
		}
	}
}
MOTION
Frames: 7
Frame Time: 0.050000
0.000000 0.953137 0.000000 -0.386352 -5.633562 -0.280483 2.803898 0.564404 7.505543 -2.553354 0.399287 -6.695429 3.637998 9.973856 11.692197 0.000000 0.000000 0.000000 -4.204714 -0.098120 4.413793 4.233398 -0.395847 -4.015213 -1.282268 -7.658362 10.640123 0.000000 0.000000 0.000000 6.277685 -0.344119 3.275549 -5.073949 1.771589 -22.501285 -1.052718 7.267462 28.530490 8.738354 -2.883075 -26.184844 0.000000 0.000000 0.000000 -21.223978 -4.621678 0.447668 -51.940366 -5.007635 -6.331818 -5.799589 -24.077138 2.306988 0.000000 0.000000 0.000000 27.441395 -5.849927 -4.197053 55.676658 5.461415 -5.814589 5.128345 23.418596 2.286230 0.000000 0.000000 0.000000 
-0.000066 0.951777 0.000172 -0.512547 -6.559642 -0.020517 3.192678 0.585768 7.917381 -3.093543 0.453070 -7.541358 3.975375 10.358252 11.033245 0.000000 0.000000 0.000000 -4.176376 -0.040762 3.598883 4.274571 -0.387692 -3.262533 -0.987313 -7.163704 10.548739 0.000000 0.000000 0.000000 6.734148 -0.314389 2.805685 -5.698082 1.924423 -22.101019 -1.119052 7.625371 27.926660 9.162675 -3.093115 -26.452645 0.000000 0.000000 0.000000 -20.503604 -3.759854 0.062725 -52.586956 -4.778877 -6.462392 -5.523913 -24.392949 2.292507 0.000000 0.000000 0.000000 27.005629 -6.662494 -4.818654 56.950823 4.119201 -6.377420 5.345559 25.105764 2.535021 0.000000 0.000000 0.000000 
-0.000108 0.951622 0.000122 -0.407136 -6.688293 0.020047 3.205504 0.544017 7.372403 -3.359446 0.457063 -6.345349 4.102451 10.477352 10.460584 0.000000 0.000000 0.000000 -4.235921 -0.038178 3.681304 3.966091 -0.368887 -3.920307 -0.670295 -6.786417 11.131295 0.000000 0.000000 0.000000 6.708351 -0.272273 2.372952 -5.933316 1.973422 -22.603713 -0.754171 7.065740 28.726931 8.330433 -2.768666 -26.258758 0.000000 0.000000 0.000000 -20.375991 -4.007407 0.439812 -52.752460 -4.923550 -6.553619 -5.067875 -23.529269 2.147277 0.000000 0.000000 0.000000 26.739311 -6.056480 -4.602715 56.513006 3.735898 -6.558969 5.369857 24.608980 2.438466 0.000000 0.000000 0.000000 
-0.000262 0.951721 0.000168 -0.215390 -7.215422 -0.156023 3.008037 0.623507 8.064019 -3.332255 0.466357 -6.912729 4.172739 10.586387 10.641750 0.000000 0.000000 0.000000 -4.768336 0.000451 3.852384 4.642411 -0.398102 -3.900614 -0.716880 -7.042838 11.446368 0.000000 0.000000 0.000000 6.736035 -0.283536 2.535536 -6.110175 2.005630 -22.950009 -0.782911 7.284962 28.913198 8.452152 -2.927763 -25.819775 0.000000 0.000000 0.000000 -20.491654 -3.709943 0.312378 -53.130471 -4.582616 -6.765164 -5.138810 -23.971815 2.224152 0.000000 0.000000 0.000000 27.388163 -6.379718 -4.924998 56.193690 3.396992 -6.717727 5.871482 24.837782 2.573854 0.000000 0.000000 0.000000 
-0.000467 0.952300 0.000128 -0.226458 -7.194384 -0.382387 2.981053 0.627774 8.076846 -3.155803 0.452346 -6.740574 4.092951 10.471723 10.769678 0.000000 0.000000 0.000000 -4.653805 -0.016625 3.967380 4.403113 -0.386537 -3.933580 -0.748508 -7.057895 11.322994 0.000000 0.000000 0.000000 6.449755 -0.295051 2.773058 -5.625633 1.890724 -22.364502 -0.957932 7.109517 28.055292 8.015415 -2.805327 -24.857360 0.000000 0.000000 0.000000 -20.448568 -3.551195 0.228783 -53.376645 -4.350335 -6.808330 -5.438189 -23.723860 2.256597 0.000000 0.000000 0.000000 27.271169 -6.088561 -4.797583 56.115947 3.172918 -6.710710 5.426818 24.315434 2.394217 0.000000 0.000000 0.000000 
-0.000605 0.952681 0.000144 -0.215120 -7.266260 -0.412512 2.987750 0.644343 8.263602 -3.263016 0.463896 -7.037037 4.210680 10.673546 10.817302 0.000000 0.000000 0.000000 -4.766472 -0.014759 4.133241 4.488280 -0.390226 -3.943198 -0.544598 -6.762680 11.544256 0.000000 0.000000 0.000000 6.285937 -0.293447 2.805499 -5.602873 1.876959 -22.787660 -0.782002 7.046479 28.359475 7.703582 -2.676200 -24.628352 0.000000 0.000000 0.000000 -20.399839 -3.464860 0.231147 -53.574572 -4.263741 -6.909992 -5.422549 -23.703599 2.263564 0.000000 0.000000 0.000000 27.201527 -6.174828 -4.880014 55.985395 2.744501 -6.911864 6.072162 24.308384 2.516279 0.000000 0.000000 0.000000 
-0.000706 0.952798 0.000145 -0.251617 -7.204197 -0.529692 3.054039 0.645100 8.330040 -3.246820 0.463620 -7.131977 4.206234 10.729321 11.252236 0.000000 0.000000 0.000000 -4.538173 -0.043278 4.304162 4.207999 -0.377132 -3.899768 -0.393389 -6.412654 11.375643 0.000000 0.000000 0.000000 6.225600 -0.293052 2.841137 -5.488719 1.852871 -22.512796 -0.896361 6.862328 28.129436 7.858178 -2.777486 -24.710381 0.000000 0.000000 0.000000 -20.589545 -3.615093 0.333261 -53.656098 -4.035687 -7.000002 -5.478347 -23.762723 2.284285 0.000000 0.000000 0.000000 27.324807 -5.874802 -4.756996 56.056258 2.517198 -6.989205 6.027321 24.385039 2.505075 0.000000 0.000000 0.000000 
